<svg id="visual" viewBox="0 0 900 600" width="900" height="600" xmlns="http://www.w3.org/2000/svg" xmlns:xlink="http://www.w3.org/1999/xlink" version="1.1"><rect x="0" y="0" width="900" height="600" fill="#002233"></rect><path d="M0 507L15 507.2C30 507.3 60 507.7 90 499.3C120 491 150 474 180 466.5C210 459 240 461 270 459.3C300 457.7 330 452.3 360 455.2C390 458 420 469 450 480C480 491 510 502 540 499.3C570 496.7 600 480.3 630 469.3C660 458.3 690 452.7 720 453.8C750 455 780 463 810 464C840 465 870 459 885 456L900 453L900 601L885 601C870 601 840 601 810 601C780 601 750 601 720 601C690 601 660 601 630 601C600 601 570 601 540 601C510 601 480 601 450 601C420 601 390 601 360 601C330 601 300 601 270 601C240 601 210 601 180 601C150 601 120 601 90 601C60 601 30 601 15 601L0 601Z" fill="#0066FF" stroke-linecap="round" stroke-linejoin="miter"></path></svg>